# 3ds Max Wavefront OBJ Exporter v0.99 - (c)2007 guruware
# 创建的文件:10.05.2025 11:02:36

mtllib Y_1_10_1.mtl

#
# object Box001
#

v  -1.0000 -10.0000 1.0000
v  -1.0000 -10.0000 -1.0000
v  1.0000 -10.0000 -1.0000
v  1.0000 -10.0000 1.0000
v  -1.0000 10.0000 1.0000
v  1.0000 10.0000 1.0000
v  1.0000 10.0000 -1.0000
v  -1.0000 10.0000 -1.0000
v  1.0000 -8.0000 1.0000
v  -1.0000 -8.0000 1.0000
v  1.0000 -6.0000 1.0000
v  -1.0000 -6.0000 1.0000
v  1.0000 -4.0000 1.0000
v  -1.0000 -4.0000 1.0000
v  1.0000 -2.0000 1.0000
v  -1.0000 -2.0000 1.0000
v  1.0000 0.0000 1.0000
v  -1.0000 0.0000 1.0000
v  1.0000 2.0000 1.0000
v  -1.0000 2.0000 1.0000
v  1.0000 4.0000 1.0000
v  -1.0000 4.0000 1.0000
v  1.0000 6.0000 1.0000
v  -1.0000 6.0000 1.0000
v  1.0000 8.0000 1.0000
v  -1.0000 8.0000 1.0000
v  1.0000 -8.0000 -1.0000
v  1.0000 -6.0000 -1.0000
v  1.0000 -4.0000 -1.0000
v  1.0000 -2.0000 -1.0000
v  1.0000 0.0000 -1.0000
v  1.0000 2.0000 -1.0000
v  1.0000 4.0000 -1.0000
v  1.0000 6.0000 -1.0000
v  1.0000 8.0000 -1.0000
v  -1.0000 -8.0000 -1.0000
v  -1.0000 -6.0000 -1.0000
v  -1.0000 -4.0000 -1.0000
v  -1.0000 -2.0000 -1.0000
v  -1.0000 0.0000 -1.0000
v  -1.0000 2.0000 -1.0000
v  -1.0000 4.0000 -1.0000
v  -1.0000 6.0000 -1.0000
v  -1.0000 8.0000 -1.0000
# 44 vertices

vn 0.0000 -1.0000 -0.0000
vn 0.0000 1.0000 -0.0000
vn 0.0000 0.0000 1.0000
vn 1.0000 0.0000 -0.0000
vn 0.0000 0.0000 -1.0000
vn -1.0000 0.0000 -0.0000
# 6 vertex normals

vt 1.0000 0.0000 0.0000
vt 1.0000 1.0000 0.0000
vt 0.0000 1.0000 0.0000
vt 0.0000 0.0000 0.0000
vt 1.0000 0.1000 0.0000
vt 0.0000 0.1000 0.0000
vt 1.0000 0.2000 0.0000
vt 0.0000 0.2000 0.0000
vt 1.0000 0.3000 0.0000
vt 0.0000 0.3000 0.0000
vt 1.0000 0.4000 0.0000
vt 0.0000 0.4000 0.0000
vt 1.0000 0.5000 0.0000
vt 0.0000 0.5000 0.0000
vt 1.0000 0.6000 0.0000
vt 0.0000 0.6000 0.0000
vt 1.0000 0.7000 0.0000
vt 0.0000 0.7000 0.0000
vt 1.0000 0.8000 0.0000
vt 0.0000 0.8000 0.0000
vt 1.0000 0.9000 0.0000
vt 0.0000 0.9000 0.0000
# 22 texture coords

o Box001
g Box001
usemtl wire_227153153
s 2
f 1/1/1 2/2/1 3/3/1 
f 3/3/1 4/4/1 1/1/1 
s 4
f 5/4/2 6/1/2 7/2/2 
f 7/2/2 8/3/2 5/4/2 
s 8
f 1/4/3 4/1/3 9/5/3 
f 9/5/3 10/6/3 1/4/3 
f 10/6/3 9/5/3 11/7/3 
f 11/7/3 12/8/3 10/6/3 
f 12/8/3 11/7/3 13/9/3 
f 13/9/3 14/10/3 12/8/3 
f 14/10/3 13/9/3 15/11/3 
f 15/11/3 16/12/3 14/10/3 
f 16/12/3 15/11/3 17/13/3 
f 17/13/3 18/14/3 16/12/3 
f 18/14/3 17/13/3 19/15/3 
f 19/15/3 20/16/3 18/14/3 
f 20/16/3 19/15/3 21/17/3 
f 21/17/3 22/18/3 20/16/3 
f 22/18/3 21/17/3 23/19/3 
f 23/19/3 24/20/3 22/18/3 
f 24/20/3 23/19/3 25/21/3 
f 25/21/3 26/22/3 24/20/3 
f 26/22/3 25/21/3 6/2/3 
f 6/2/3 5/3/3 26/22/3 
s 16
f 4/4/4 3/1/4 27/5/4 
f 27/5/4 9/6/4 4/4/4 
f 9/6/4 27/5/4 28/7/4 
f 28/7/4 11/8/4 9/6/4 
f 11/8/4 28/7/4 29/9/4 
f 29/9/4 13/10/4 11/8/4 
f 13/10/4 29/9/4 30/11/4 
f 30/11/4 15/12/4 13/10/4 
f 15/12/4 30/11/4 31/13/4 
f 31/13/4 17/14/4 15/12/4 
f 17/14/4 31/13/4 32/15/4 
f 32/15/4 19/16/4 17/14/4 
f 19/16/4 32/15/4 33/17/4 
f 33/17/4 21/18/4 19/16/4 
f 21/18/4 33/17/4 34/19/4 
f 34/19/4 23/20/4 21/18/4 
f 23/20/4 34/19/4 35/21/4 
f 35/21/4 25/22/4 23/20/4 
f 25/22/4 35/21/4 7/2/4 
f 7/2/4 6/3/4 25/22/4 
s 32
f 3/4/5 2/1/5 36/5/5 
f 36/5/5 27/6/5 3/4/5 
f 27/6/5 36/5/5 37/7/5 
f 37/7/5 28/8/5 27/6/5 
f 28/8/5 37/7/5 38/9/5 
f 38/9/5 29/10/5 28/8/5 
f 29/10/5 38/9/5 39/11/5 
f 39/11/5 30/12/5 29/10/5 
f 30/12/5 39/11/5 40/13/5 
f 40/13/5 31/14/5 30/12/5 
f 31/14/5 40/13/5 41/15/5 
f 41/15/5 32/16/5 31/14/5 
f 32/16/5 41/15/5 42/17/5 
f 42/17/5 33/18/5 32/16/5 
f 33/18/5 42/17/5 43/19/5 
f 43/19/5 34/20/5 33/18/5 
f 34/20/5 43/19/5 44/21/5 
f 44/21/5 35/22/5 34/20/5 
f 35/22/5 44/21/5 8/2/5 
f 8/2/5 7/3/5 35/22/5 
s 64
f 2/4/6 1/1/6 10/5/6 
f 10/5/6 36/6/6 2/4/6 
f 36/6/6 10/5/6 12/7/6 
f 12/7/6 37/8/6 36/6/6 
f 37/8/6 12/7/6 14/9/6 
f 14/9/6 38/10/6 37/8/6 
f 38/10/6 14/9/6 16/11/6 
f 16/11/6 39/12/6 38/10/6 
f 39/12/6 16/11/6 18/13/6 
f 18/13/6 40/14/6 39/12/6 
f 40/14/6 18/13/6 20/15/6 
f 20/15/6 41/16/6 40/14/6 
f 41/16/6 20/15/6 22/17/6 
f 22/17/6 42/18/6 41/16/6 
f 42/18/6 22/17/6 24/19/6 
f 24/19/6 43/20/6 42/18/6 
f 43/20/6 24/19/6 26/21/6 
f 26/21/6 44/22/6 43/20/6 
f 44/22/6 26/21/6 5/2/6 
f 5/2/6 8/3/6 44/22/6 
# 84 faces

